<svg xmlns="http://www.w3.org/2000/svg" viewBox="0 0 16 16" aria-hidden="true">
  <path fill="#000" d="M0 1.146C0 .513.526 0 1.175 0h13.65C15.473 0 16 .513 16 1.146v13.708c0 .633-.527 1.146-1.175 1.146H1.175C.526 16 0 15.487 0 14.854zm4.943 12.248V6.169H2.542v7.225zm-1.2-8.212c.837 0 1.358-.554 1.358-1.248-.015-.709-.521-1.248-1.343-1.248S2.4 3.226 2.4 3.934c0 .694.521 1.248 1.327 1.248zm4.908 8.212V9.359c0-.216.016-.432.08-.586.175-.431.574-.878 1.243-.878.877 0 1.228.663 1.228 1.634v3.865h2.401V9.251c0-2.22-1.185-3.252-2.767-3.252-1.274 0-1.845.7-2.165 1.193v-1.023H6.341c.03.678 0 7.225 0 7.225z" />
</svg>
